# 3ds Max Wavefront OBJ Exporter v0.97b - (c)2007 guruware
# File Created: 18.01.2022 18:06:05

mtllib cubo.mtl

#
# object Box002
#

v  67.6960 0.0000 73.1908
v  155.6263 0.0000 73.1908
v  67.6960 0.0000 -14.7395
v  155.6263 0.0000 -14.7395
v  67.6960 87.9303 73.1908
v  155.6263 87.9303 73.1908
v  67.6960 87.9303 -14.7395
v  155.6263 87.9303 -14.7395
# 8 vertices

vn -0.5774 -0.5774 0.5774
vn -0.5774 -0.5774 -0.5774
vn 0.5774 -0.5774 -0.5774
vn 0.5774 -0.5774 0.5774
vn -0.5774 0.5774 0.5774
vn 0.5774 0.5774 0.5774
vn 0.5774 0.5774 -0.5774
vn -0.5774 0.5774 -0.5774
vn -0.5774 -0.5774 0.5774
vn 0.5774 -0.5774 0.5774
vn 0.5774 0.5774 0.5774
vn -0.5774 0.5774 0.5774
vn 0.5774 -0.5774 0.5774
vn 0.5774 -0.5774 -0.5774
vn 0.5774 0.5774 -0.5774
vn 0.5774 0.5774 0.5774
vn 0.5774 -0.5774 -0.5774
vn -0.5774 -0.5774 -0.5774
vn -0.5774 0.5774 -0.5774
vn 0.5774 0.5774 -0.5774
vn -0.5774 -0.5774 -0.5774
vn -0.5774 -0.5774 0.5774
vn -0.5774 0.5774 0.5774
vn -0.5774 0.5774 -0.5774
# 24 vertex normals

vt 0.0000 0.0000 0.0000
vt 1.0000 0.0000 0.0000
vt 0.0000 1.0000 0.0000
vt 1.0000 1.0000 0.0000
vt 0.0000 0.0000 0.0000
vt 1.0000 0.0000 0.0000
vt 0.0000 1.0000 0.0000
vt 1.0000 1.0000 0.0000
vt 0.0000 0.0000 0.0000
vt 1.0000 0.0000 0.0000
vt 0.0000 1.0000 0.0000
vt 1.0000 1.0000 0.0000
# 12 texture coords

o Box002
g Box002
usemtl wire_228184153
s 2
f 1/10/1 3/12/2 4/11/3 2/9/4 
s 4
f 5/9/5 6/10/6 8/12/7 7/11/8 
s 8
f 1/5/9 2/6/10 6/8/11 5/7/12 
s 16
f 2/1/13 4/2/14 8/4/15 6/3/16 
s 32
f 4/5/17 3/6/18 7/8/19 8/7/20 
s 64
f 3/1/21 1/2/22 5/4/23 7/3/24 
# 6 polygons

